<svg width="24" height="24" viewBox="0 0 24 24" fill="none" xmlns="http://www.w3.org/2000/svg">
<path fill-rule="evenodd" clip-rule="evenodd" d="M3.51482 3.51472C-1.17147 8.20101 -1.17147 15.799 3.51482 20.4853C8.20111 25.1716 15.7991 25.1716 20.4854 20.4853C25.1717 15.799 25.1717 8.20101 20.4854 3.51472C15.7991 -1.17157 8.20111 -1.17157 3.51482 3.51472ZM7.75656 8.50546C7.75656 8.0923 8.09149 7.75736 8.50466 7.75736L15.2418 7.75736C15.7941 7.75736 16.2418 8.20507 16.2418 8.75736L16.2418 15.4945C16.2418 15.9077 15.9069 16.2426 15.4937 16.2426C15.0808 16.2426 14.746 15.9081 14.7456 15.4952L14.741 10.3189L8.81722 16.2426C8.52432 16.5355 8.04945 16.5355 7.75656 16.2426C7.46366 15.9497 7.46366 15.4749 7.75656 15.182L13.6803 9.25819L8.50399 9.25356C8.09108 9.25319 7.75656 8.91836 7.75656 8.50546Z" fill="#12071C"/>
</svg>
