<svg width="20" height="21" viewBox="0 0 20 21" fill="none" xmlns="http://www.w3.org/2000/svg">
<path fill-rule="evenodd" clip-rule="evenodd" d="M10 0.5C4.47715 0.5 0 4.97715 0 10.5C0 16.0228 4.47715 20.5 10 20.5C15.5228 20.5 20 16.0228 20 10.5C20 4.97715 15.5228 0.5 10 0.5ZM9.55878 6.82207C9.3157 6.57855 9.31587 6.18413 9.55918 5.94082C9.80264 5.69736 10.1974 5.69736 10.4408 5.94082L14.2929 9.79289C14.6834 10.1834 14.6834 10.8166 14.2929 11.2071L10.4408 15.0592C10.1974 15.3026 9.80264 15.3026 9.55918 15.0592C9.31587 14.8159 9.3157 14.4215 9.55878 14.1779L12.6062 11.125H5.625C5.27982 11.125 5 10.8452 5 10.5C5 10.1548 5.27982 9.875 5.625 9.875H12.6062L9.55878 6.82207Z" fill="#12071C"/>
</svg>
