<svg width="32" height="32" viewBox="0 0 32 32" fill="none" xmlns="http://www.w3.org/2000/svg">
<rect width="32" height="32" rx="16" fill="white"/>
<path d="M11.76 9.59998C12.3829 9.59998 12.9514 9.65421 13.4656 9.76154C13.9798 9.86888 14.4188 10.0451 14.7851 10.2903C15.1514 10.5355 15.4357 10.8609 15.6379 11.2676C15.8401 11.6744 15.9406 12.176 15.9406 12.7737C15.9406 13.4188 15.7904 13.9566 15.4911 14.3871C15.1919 14.8176 14.7482 15.1701 14.1623 15.4447C14.9689 15.6718 15.5709 16.0695 15.9684 16.6366C16.3659 17.2038 16.5646 17.8885 16.5646 18.6896C16.5646 19.3347 16.4363 19.894 16.1798 20.3662C15.9233 20.8385 15.5778 21.2238 15.1433 21.5221C14.7089 21.8215 14.2143 22.0418 13.6585 22.1853C13.0993 22.3288 12.5227 22.4011 11.9449 22.4H5.6001V9.59998H11.76ZM11.3938 14.7803C11.9068 14.7803 12.3286 14.6605 12.659 14.4221C12.9895 14.1826 13.1547 13.7951 13.1536 13.2573C13.1536 12.959 13.0981 12.7138 12.9883 12.5229C12.8786 12.3319 12.7318 12.1817 12.5481 12.0743C12.3644 11.967 12.1541 11.8924 11.916 11.8506C11.6711 11.8088 11.4226 11.7874 11.1731 11.7885H8.47959V14.7826L11.3938 14.7803ZM11.559 20.2115C11.8305 20.2126 12.1009 20.1855 12.3655 20.1312C12.622 20.077 12.8485 19.9877 13.0438 19.8623C13.2391 19.7369 13.3951 19.5663 13.5118 19.3516C13.6273 19.137 13.6863 18.8613 13.6863 18.5269C13.6863 17.8704 13.4968 17.4004 13.1178 17.1202C12.7388 16.8389 12.2373 16.6988 11.6145 16.6988H8.47959V20.2126L11.559 20.2115ZM20.1859 19.9426C20.5765 20.3131 21.1392 20.4984 21.8729 20.4984C22.3987 20.4984 22.8505 20.3696 23.2295 20.1132C23.6085 19.8567 23.8408 19.5844 23.9263 19.2974H26.2176C25.8513 20.4092 25.2886 21.2035 24.5306 21.6814C23.7726 22.1593 22.8563 22.3988 21.7805 22.3988C21.0352 22.3988 20.3627 22.2825 19.7642 22.0497C19.1656 21.817 18.6584 21.4848 18.2424 21.0543C17.8264 20.6238 17.5052 20.1109 17.2799 19.5132C17.0545 18.9155 16.9413 18.258 16.9413 17.5416C16.9413 16.849 17.0568 16.2039 17.2891 15.6062C17.5213 15.0085 17.8518 14.4922 18.2794 14.0561C18.7069 13.62 19.2176 13.2765 19.8104 13.0257C20.4032 12.7748 21.0606 12.6494 21.7817 12.6494C22.5882 12.6494 23.2907 12.8019 23.8904 13.107C24.489 13.4121 24.9812 13.8211 25.366 14.3351C25.7508 14.8492 26.0293 15.4345 26.2003 16.0921C26.3713 16.7496 26.4325 17.4366 26.384 18.154H19.5458C19.5816 18.9754 19.7954 19.5731 20.1859 19.9426ZM23.129 15.0673C22.817 14.7329 22.3432 14.5656 21.7077 14.5656C21.2917 14.5656 20.9462 14.6346 20.6724 14.7713C20.3974 14.9091 20.1778 15.0786 20.0126 15.282C19.8474 15.4853 19.7318 15.7 19.6648 15.9271C19.5978 16.1542 19.5573 16.3576 19.5458 16.5361H23.7807C23.657 15.8921 23.4398 15.4017 23.129 15.0673ZM19.0998 10.2496H24.3908V11.6845H19.0998V10.2496Z" fill="#12071C"/>
</svg>
