<svg width="166" height="26" viewBox="0 0 166 26" fill="none" xmlns="http://www.w3.org/2000/svg">
<path fill-rule="evenodd" clip-rule="evenodd" d="M9 2.0927C9 1.36018 9 0.993928 8.85744 0.714145C8.73205 0.468041 8.53196 0.267953 8.28586 0.142556C8.00607 0 7.63982 0 6.9073 0H2.16667H2.0927C1.36018 0 0.993928 0 0.714145 0.142556C0.468041 0.267953 0.267953 0.468041 0.142556 0.714145C0 0.993928 0 1.36018 0 2.0927V2.16667V6.9073C0 7.63982 0 8.00607 0.142556 8.28586C0.267953 8.53196 0.468041 8.73205 0.714145 8.85744C0.993928 9 1.36018 9 2.0927 9H4.9073C5.63982 9 6.00607 9 6.28585 9.14256C6.53196 9.26795 6.73205 9.46804 6.85744 9.71414C7 9.99393 7 10.3602 7 11.0927V14.9073C7 15.6398 7 16.0061 6.85744 16.2859C6.73205 16.532 6.53196 16.732 6.28585 16.8574C6.00607 17 5.63982 17 4.9073 17H2.0927C1.36018 17 0.993928 17 0.714145 17.1426C0.468041 17.268 0.267953 17.468 0.142556 17.7141C0 17.9939 0 18.3602 0 19.0927V23.8333V23.9073C0 24.6398 0 25.0061 0.142556 25.2859C0.267953 25.532 0.468041 25.732 0.714145 25.8574C0.993928 26 1.36018 26 2.0927 26H2.16667H6.9073C7.63982 26 8.00607 26 8.28586 25.8574C8.53196 25.732 8.73205 25.532 8.85744 25.2859C9 25.0061 9 24.6398 9 23.9073V21.0927C9 20.3602 9 19.9939 9.14256 19.7141C9.26795 19.468 9.46804 19.268 9.71414 19.1426C9.99393 19 10.3602 19 11.0927 19H14.9073C15.6398 19 16.0061 19 16.2859 19.1426C16.532 19.268 16.732 19.468 16.8574 19.7141C17 19.9939 17 20.3602 17 21.0927V23.9073C17 24.6398 17 25.0061 17.1426 25.2859C17.268 25.532 17.468 25.732 17.7141 25.8574C17.9939 26 18.3602 26 19.0927 26H23.8333H23.9073C24.6398 26 25.0061 26 25.2859 25.8574C25.532 25.732 25.732 25.532 25.8574 25.2859C26 25.0061 26 24.6398 26 23.9073V23.8333V19.0927C26 18.3602 26 17.9939 25.8574 17.7141C25.732 17.468 25.532 17.268 25.2859 17.1426C25.0061 17 24.6398 17 23.9073 17H21.0927C20.3602 17 19.9939 17 19.7141 16.8574C19.468 16.732 19.268 16.532 19.1426 16.2859C19 16.0061 19 15.6398 19 14.9073L19 11.0927C19 10.3602 19 9.99393 19.1426 9.71414C19.268 9.46804 19.468 9.26795 19.7141 9.14256C19.9939 9 20.3602 9 21.0927 9H23.9073C24.6398 9 25.0061 9 25.2859 8.85744C25.532 8.73205 25.732 8.53196 25.8574 8.28585C26 8.00607 26 7.63981 26 6.9073L26 2.16667V2.0927C26 1.36018 26 0.993928 25.8574 0.714145C25.732 0.468041 25.532 0.267953 25.2859 0.142556C25.0061 0 24.6398 0 23.9073 0H23.8333H19.0927C18.3602 0 17.9939 0 17.7141 0.142556C17.468 0.267953 17.268 0.468041 17.1426 0.714145C17 0.993928 17 1.36018 17 2.0927V4.9073C17 5.63982 17 6.00607 16.8574 6.28585C16.732 6.53196 16.532 6.73205 16.2859 6.85744C16.0061 7 15.6398 7 14.9073 7H11.0927C10.3602 7 9.99393 7 9.71414 6.85744C9.46804 6.73205 9.26795 6.53196 9.14256 6.28585C9 6.00607 9 5.63982 9 4.9073V2.0927Z" fill="url(#paint0_linear_13_4666)"/>
<path d="M42.6295 21.0812C41.4998 21.0812 40.5102 20.9038 39.6607 20.5491C38.8205 20.1943 38.167 19.6855 37.7002 19.0227C37.2334 18.3505 37 17.5476 37 16.614C37 15.6431 37.2521 14.8356 37.7562 14.1914C38.2603 13.5379 38.9698 13.0291 39.8847 12.665C40.7997 12.3009 41.8639 12.0582 43.0776 11.9368C44.9074 11.7501 46.2097 11.5681 46.9846 11.3907C47.7595 11.204 48.1469 10.9052 48.1469 10.4945C48.1469 10.4851 48.1469 10.4805 48.1469 10.4805C48.1469 10.4711 48.1469 10.4618 48.1469 10.4525C48.1469 9.59356 47.7968 8.95406 47.0966 8.53395C46.3964 8.10451 45.3835 7.88979 44.0578 7.88979C42.6761 7.88979 41.6025 8.13252 40.837 8.61797C40.0715 9.0941 39.6887 9.86897 39.6887 10.9426H37.3361C37.3361 9.83162 37.6208 8.88871 38.1903 8.11384C38.7598 7.32964 39.5487 6.73215 40.5569 6.32138C41.5745 5.91061 42.7462 5.70522 44.0718 5.70522C45.2855 5.70522 46.3778 5.89193 47.3487 6.26536C48.3289 6.62946 49.1038 7.1756 49.6733 7.90379C50.2521 8.62264 50.5415 9.51421 50.5415 10.5785C50.5415 10.7745 50.5415 10.9706 50.5415 11.1666C50.5415 11.3534 50.5415 11.5447 50.5415 11.7408V18.0004C50.5415 18.3272 50.5555 18.6446 50.5835 18.9527C50.6115 19.2607 50.6582 19.5315 50.7236 19.7649C50.8076 20.0449 50.9009 20.2737 51.0036 20.451C51.1063 20.6191 51.1903 20.7358 51.2557 20.8011H48.8611C48.8144 20.7545 48.7444 20.6471 48.651 20.4791C48.5577 20.3017 48.469 20.0963 48.385 19.8629C48.3196 19.6762 48.2683 19.4428 48.2309 19.1627C48.1936 18.8733 48.1749 18.5746 48.1749 18.2665L48.567 18.5325C48.2776 19.0367 47.8528 19.4801 47.2927 19.8629C46.7419 20.2457 46.0744 20.5444 45.2902 20.7591C44.5059 20.9738 43.6191 21.0812 42.6295 21.0812ZM43.0076 18.9387C43.9691 18.9387 44.8374 18.7939 45.6122 18.5045C46.3871 18.2058 47.0033 17.767 47.4607 17.1882C47.9182 16.6094 48.1469 15.8905 48.1469 15.0316V12.0769L48.679 12.9731C48.0815 13.2065 47.3347 13.3979 46.4384 13.5473C45.5516 13.6873 44.6226 13.804 43.6517 13.8973C42.242 14.028 41.1778 14.2754 40.4589 14.6395C39.7494 15.0036 39.3946 15.6151 39.3946 16.474C39.3946 17.2862 39.6887 17.9024 40.2768 18.3225C40.865 18.7333 41.7752 18.9387 43.0076 18.9387Z" fill="url(#paint1_linear_13_4666)"/>
<path d="M63.6454 20.8011V14.2334C63.6454 13.6546 63.6454 13.1552 63.6454 12.735C63.6454 12.3056 63.6454 11.9462 63.6454 11.6568C63.6454 11.2927 63.6174 10.9006 63.5614 10.4805C63.5147 10.051 63.398 9.64958 63.2113 9.27615C63.0246 8.89338 62.7305 8.58063 62.3291 8.3379C61.937 8.09517 61.3908 7.97381 60.6906 7.97381C59.9811 7.97381 59.3836 8.11384 58.8982 8.39392C58.4127 8.66465 58.0206 9.02408 57.7219 9.4722C57.4231 9.92031 57.2084 10.4151 57.0777 10.9566C56.947 11.4887 56.8817 12.0162 56.8817 12.539L55.5373 11.9929C55.5373 10.8726 55.7707 9.83629 56.2375 8.88405C56.7043 7.9318 57.3578 7.16627 58.198 6.58745C59.0476 5.9993 60.0418 5.70522 61.1808 5.70522C62.3104 5.70522 63.23 5.93395 63.9395 6.3914C64.649 6.84885 65.1718 7.47901 65.5079 8.28189C65.844 9.08476 66.012 10.009 66.012 11.0546C66.012 11.428 66.012 11.9088 66.012 12.497C66.012 13.0758 66.012 13.7386 66.012 14.4855V20.8011H63.6454ZM54.501 20.8011V5.92928H56.8817V20.8011H54.501ZM72.7618 20.8011V14.2334C72.7618 13.5986 72.7618 13.0758 72.7618 12.665C72.7618 12.2449 72.7618 11.8902 72.7618 11.6007C72.7618 11.2367 72.7384 10.8446 72.6918 10.4244C72.6451 10.0043 72.5284 9.61223 72.3417 9.24814C72.1549 8.87471 71.8562 8.5713 71.4454 8.3379C71.044 8.09517 70.4792 7.97381 69.751 7.97381C69.0321 7.97381 68.43 8.10918 67.9445 8.37991C67.4684 8.65065 67.0856 9.00541 66.7962 9.44419C66.5162 9.88297 66.3154 10.3591 66.1941 10.8726C66.0727 11.3767 66.012 11.8622 66.012 12.3289L64.6677 11.8108C64.6677 10.7465 64.8917 9.75227 65.3398 8.82803C65.7973 7.89445 66.4415 7.14293 67.2724 6.57345C68.1126 5.99463 69.1068 5.70522 70.2551 5.70522C71.3287 5.70522 72.225 5.91527 72.9438 6.33538C73.672 6.75549 74.2182 7.34831 74.5822 8.11384C74.9557 8.87004 75.1424 9.77094 75.1424 10.8165C75.1424 11.2086 75.1424 11.6941 75.1424 12.2729C75.1424 12.8517 75.1424 13.5052 75.1424 14.2334V20.8011H72.7618Z" fill="url(#paint2_linear_13_4666)"/>
<path d="M84.4762 21.0812C83.3466 21.0812 82.357 20.9038 81.5075 20.5491C80.6673 20.1943 80.0138 19.6855 79.547 19.0227C79.0802 18.3505 78.8468 17.5476 78.8468 16.614C78.8468 15.6431 79.0989 14.8356 79.603 14.1914C80.1071 13.5379 80.8166 13.0291 81.7315 12.665C82.6464 12.3009 83.7107 12.0582 84.9244 11.9368C86.7542 11.7501 88.0565 11.5681 88.8314 11.3907C89.6062 11.204 89.9937 10.9052 89.9937 10.4945C89.9937 10.4851 89.9937 10.4805 89.9937 10.4805C89.9937 10.4711 89.9937 10.4618 89.9937 10.4525C89.9937 9.59356 89.6436 8.95406 88.9434 8.53395C88.2432 8.10451 87.2303 7.88979 85.9046 7.88979C84.5229 7.88979 83.4493 8.13252 82.6838 8.61797C81.9183 9.0941 81.5355 9.86897 81.5355 10.9426H79.1829C79.1829 9.83162 79.4676 8.88871 80.0371 8.11384C80.6066 7.32964 81.3955 6.73215 82.4037 6.32138C83.4213 5.91061 84.5929 5.70522 85.9186 5.70522C87.1323 5.70522 88.2246 5.89193 89.1955 6.26536C90.1757 6.62946 90.9506 7.1756 91.5201 7.90379C92.0989 8.62264 92.3883 9.51421 92.3883 10.5785C92.3883 10.7745 92.3883 10.9706 92.3883 11.1666C92.3883 11.3534 92.3883 11.5447 92.3883 11.7408V18.0004C92.3883 18.3272 92.4023 18.6446 92.4303 18.9527C92.4583 19.2607 92.505 19.5315 92.5703 19.7649C92.6544 20.0449 92.7477 20.2737 92.8504 20.451C92.9531 20.6191 93.0371 20.7358 93.1025 20.8011H90.7079C90.6612 20.7545 90.5912 20.6471 90.4978 20.4791C90.4045 20.3017 90.3158 20.0963 90.2317 19.8629C90.1664 19.6762 90.115 19.4428 90.0777 19.1627C90.0404 18.8733 90.0217 18.5746 90.0217 18.2665L90.4138 18.5325C90.1244 19.0367 89.6996 19.4801 89.1395 19.8629C88.5886 20.2457 87.9211 20.5444 87.1369 20.7591C86.3527 20.9738 85.4658 21.0812 84.4762 21.0812ZM84.8543 18.9387C85.8159 18.9387 86.6842 18.7939 87.459 18.5045C88.2339 18.2058 88.85 17.767 89.3075 17.1882C89.765 16.6094 89.9937 15.8905 89.9937 15.0316V12.0769L90.5258 12.9731C89.9283 13.2065 89.1815 13.3979 88.2852 13.5473C87.3983 13.6873 86.4694 13.804 85.4985 13.8973C84.0888 14.028 83.0245 14.2754 82.3057 14.6395C81.5962 15.0036 81.2414 15.6151 81.2414 16.474C81.2414 17.2862 81.5355 17.9024 82.1236 18.3225C82.7118 18.7333 83.622 18.9387 84.8543 18.9387Z" fill="url(#paint3_linear_13_4666)"/>
<path d="M102.033 21.0812C101.137 21.0812 100.306 20.9879 99.5407 20.8011C98.7845 20.6051 98.1216 20.325 97.5521 19.9609C96.992 19.5875 96.5532 19.13 96.2358 18.5886C95.9277 18.0471 95.7737 17.4263 95.7737 16.7261C95.7737 16.6514 95.7737 16.5767 95.7737 16.502C95.7737 16.418 95.7737 16.348 95.7737 16.292H98.1683C98.1683 16.348 98.1683 16.3947 98.1683 16.432C98.1683 16.4693 98.1683 16.5254 98.1683 16.6C98.1683 17.3562 98.5184 17.9351 99.2186 18.3365C99.9188 18.7286 100.876 18.9246 102.089 18.9246C102.836 18.9246 103.504 18.85 104.092 18.7006C104.68 18.5512 105.142 18.3225 105.478 18.0144C105.824 17.7063 105.996 17.3189 105.996 16.8521C105.996 16.0772 105.632 15.5264 104.904 15.1997C104.185 14.8636 103.107 14.5742 101.669 14.3315C100.913 14.2008 100.194 14.0327 99.5126 13.8273C98.8311 13.6126 98.2243 13.3372 97.6922 13.0011C97.1694 12.665 96.7539 12.2496 96.4459 11.7548C96.1471 11.2507 95.9977 10.6485 95.9977 9.94832C95.9977 9.04275 96.2638 8.27722 96.7959 7.65172C97.3374 7.01689 98.0656 6.5361 98.9805 6.20935C99.8954 5.87326 100.913 5.70522 102.033 5.70522C103.116 5.70522 104.115 5.87793 105.03 6.22335C105.945 6.56878 106.678 7.07291 107.229 7.73575C107.789 8.38925 108.069 9.19679 108.069 10.1584C108.069 10.1957 108.069 10.2424 108.069 10.2984C108.069 10.3451 108.069 10.3918 108.069 10.4384H105.688C105.688 10.3918 105.688 10.3544 105.688 10.3264C105.688 10.2984 105.688 10.2657 105.688 10.2284C105.688 9.68692 105.516 9.24347 105.17 8.89805C104.825 8.54329 104.377 8.28189 103.826 8.11384C103.275 7.93646 102.687 7.84777 102.061 7.84777C101.473 7.84777 100.894 7.91313 100.325 8.04383C99.7554 8.16519 99.2839 8.37058 98.9105 8.65999C98.5371 8.94939 98.3503 9.34616 98.3503 9.85029C98.3503 10.3544 98.5231 10.7605 98.8685 11.0686C99.2232 11.3674 99.718 11.6148 100.353 11.8108C100.997 11.9975 101.753 12.1702 102.621 12.3289C103.396 12.469 104.129 12.6464 104.82 12.8611C105.511 13.0665 106.118 13.3325 106.64 13.6593C107.173 13.986 107.588 14.4015 107.887 14.9056C108.195 15.4004 108.349 16.0072 108.349 16.7261C108.349 17.4543 108.181 18.0891 107.845 18.6306C107.518 19.172 107.061 19.6248 106.472 19.9889C105.894 20.353 105.221 20.6238 104.456 20.8011C103.7 20.9879 102.892 21.0812 102.033 21.0812Z" fill="url(#paint4_linear_13_4666)"/>
<path d="M112.817 14.3175V12.1889H124.314L123.894 12.8891C123.894 12.8331 123.894 12.7817 123.894 12.735C123.894 12.679 123.894 12.6277 123.894 12.581C123.894 11.7221 123.712 10.9379 123.348 10.2284C122.993 9.50954 122.461 8.93539 121.752 8.50595C121.042 8.0765 120.165 7.86178 119.119 7.86178C118.064 7.86178 117.135 8.08584 116.332 8.53395C115.529 8.98207 114.904 9.6169 114.456 10.4384C114.008 11.2507 113.784 12.2216 113.784 13.3512C113.784 14.4995 113.998 15.4891 114.428 16.32C114.867 17.1509 115.487 17.7904 116.29 18.2385C117.093 18.6866 118.045 18.9106 119.147 18.9106C119.931 18.9106 120.613 18.8313 121.192 18.6726C121.77 18.5045 122.247 18.2851 122.62 18.0144C123.003 17.7343 123.292 17.4309 123.488 17.1042C123.684 16.7774 123.801 16.4507 123.838 16.1239H126.219C126.172 16.7214 125.985 17.3142 125.659 17.9024C125.332 18.4905 124.87 19.0273 124.272 19.5128C123.675 19.9889 122.942 20.3717 122.074 20.6611C121.206 20.9505 120.207 21.0952 119.077 21.0952C117.583 21.0952 116.267 20.7685 115.128 20.115C113.989 19.4615 113.093 18.5559 112.439 17.3983C111.795 16.2406 111.473 14.9103 111.473 13.4072C111.473 11.8855 111.8 10.5505 112.453 9.40218C113.107 8.24455 114.008 7.33898 115.156 6.68547C116.304 6.03197 117.616 5.70522 119.091 5.70522C120.594 5.70522 121.896 6.03197 122.998 6.68547C124.1 7.33898 124.949 8.23521 125.547 9.37417C126.144 10.5038 126.443 11.7921 126.443 13.2392C126.443 13.3885 126.438 13.5846 126.429 13.8273C126.42 14.0701 126.406 14.2334 126.387 14.3175H112.817Z" fill="url(#paint5_linear_13_4666)"/>
<path d="M135.734 21.0252C135.277 21.0252 134.829 20.9738 134.39 20.8712C133.951 20.7685 133.554 20.5864 133.199 20.325C132.854 20.0543 132.579 19.6762 132.373 19.1907C132.168 18.6959 132.065 18.0611 132.065 17.2862C132.065 17.0902 132.065 16.8895 132.065 16.6841C132.065 16.4693 132.065 16.2453 132.065 16.0119V8.02982H128.438V5.92928H130.763C131.08 5.92928 131.328 5.91994 131.505 5.90127C131.682 5.87326 131.808 5.81258 131.883 5.71922C131.967 5.61653 132.019 5.46249 132.037 5.2571C132.056 5.04238 132.065 4.74831 132.065 4.37487V1H134.46V5.92928H139.109V8.02982H134.46V15.2417C134.46 15.4471 134.46 15.6478 134.46 15.8438C134.46 16.0399 134.46 16.2219 134.46 16.39C134.46 17.1835 134.553 17.8044 134.74 18.2525C134.936 18.7006 135.37 18.9246 136.042 18.9246C136.313 18.9246 136.57 18.9013 136.812 18.8546C137.055 18.808 137.237 18.7613 137.359 18.7146V20.7871C137.2 20.8431 136.976 20.8945 136.686 20.9412C136.406 20.9972 136.089 21.0252 135.734 21.0252Z" fill="url(#paint6_linear_13_4666)"/>
<defs>
<linearGradient id="paint0_linear_13_4666" x1="13" y1="0" x2="13" y2="26" gradientUnits="userSpaceOnUse">
<stop stop-color="white"/>
<stop offset="1" stop-color="#CFCFCF"/>
</linearGradient>
<linearGradient id="paint1_linear_13_4666" x1="88.0545" y1="1" x2="88.0545" y2="21.0952" gradientUnits="userSpaceOnUse">
<stop stop-color="white"/>
<stop offset="1" stop-color="#CFCFCF"/>
</linearGradient>
<linearGradient id="paint2_linear_13_4666" x1="88.0545" y1="1" x2="88.0545" y2="21.0952" gradientUnits="userSpaceOnUse">
<stop stop-color="white"/>
<stop offset="1" stop-color="#CFCFCF"/>
</linearGradient>
<linearGradient id="paint3_linear_13_4666" x1="88.0545" y1="1" x2="88.0545" y2="21.0952" gradientUnits="userSpaceOnUse">
<stop stop-color="white"/>
<stop offset="1" stop-color="#CFCFCF"/>
</linearGradient>
<linearGradient id="paint4_linear_13_4666" x1="88.0545" y1="1" x2="88.0545" y2="21.0952" gradientUnits="userSpaceOnUse">
<stop stop-color="white"/>
<stop offset="1" stop-color="#CFCFCF"/>
</linearGradient>
<linearGradient id="paint5_linear_13_4666" x1="88.0545" y1="1" x2="88.0545" y2="21.0952" gradientUnits="userSpaceOnUse">
<stop stop-color="white"/>
<stop offset="1" stop-color="#CFCFCF"/>
</linearGradient>
<linearGradient id="paint6_linear_13_4666" x1="88.0545" y1="1" x2="88.0545" y2="21.0952" gradientUnits="userSpaceOnUse">
<stop stop-color="white"/>
<stop offset="1" stop-color="#CFCFCF"/>
</linearGradient>
</defs>
</svg>
