<svg width="57" height="56" viewBox="0 0 57 56" fill="none" xmlns="http://www.w3.org/2000/svg">
<rect x="0.5" width="56" height="56" rx="28" fill="#12071C" fill-opacity="0.2"/>
<g clip-path="url(#clip0_73_370)">
<path d="M40.1667 13H16.8333C15 13 13.5 14.5 13.5 16.3333V39.6667C13.5 41.5 15 43 16.8333 43H40.1667C42 43 43.5 41.5 43.5 39.6667V16.3333C43.5 14.5 42 13 40.1667 13ZM21.8333 36.3333C20.9167 36.3333 20.1667 35.5833 20.1667 34.6667V29.6667C20.1667 28.75 20.9167 28 21.8333 28C22.75 28 23.5 28.75 23.5 29.6667V34.6667C23.5 35.5833 22.75 36.3333 21.8333 36.3333ZM28.5 36.3333C27.5833 36.3333 26.8333 35.5833 26.8333 34.6667V33C26.8333 32.0833 27.5833 31.3333 28.5 31.3333C29.4167 31.3333 30.1667 32.0833 30.1667 33V34.6667C30.1667 35.5833 29.4167 36.3333 28.5 36.3333ZM28.5 28C27.5833 28 26.8333 27.25 26.8333 26.3333C26.8333 25.4167 27.5833 24.6667 28.5 24.6667C29.4167 24.6667 30.1667 25.4167 30.1667 26.3333C30.1667 27.25 29.4167 28 28.5 28ZM35.1667 36.3333C34.25 36.3333 33.5 35.5833 33.5 34.6667V21.3333C33.5 20.4167 34.25 19.6667 35.1667 19.6667C36.0833 19.6667 36.8333 20.4167 36.8333 21.3333V34.6667C36.8333 35.5833 36.0833 36.3333 35.1667 36.3333Z" fill="white"/>
</g>
<defs>
<clipPath id="clip0_73_370">
<rect width="40" height="40" fill="white" transform="translate(8.5 8)"/>
</clipPath>
</defs>
</svg>
