<svg width="57" height="56" viewBox="0 0 57 56" fill="none" xmlns="http://www.w3.org/2000/svg">
<rect x="0.5" width="56" height="56" rx="28" fill="#12071C" fill-opacity="0.2"/>
<g clip-path="url(#clip0_73_1800)">
<path d="M45.1667 14.6663C45.1667 12.833 43.6667 11.333 41.8334 11.333H15.1667C13.3334 11.333 11.85 12.833 11.85 14.6663L11.8334 44.6663L18.5 37.9997H33.5V26.333C33.5 25.4163 34.25 24.6663 35.1667 24.6663H45.1667V14.6663Z" fill="white"/>
<path d="M44.65 34.6667H42.3334L44.6667 29.1667C44.9 28.6167 44.5 28 43.9 28H37.6667C37.2 28 36.8334 28.3667 36.8334 28.8333V37.1667C36.8334 37.6333 37.2 38 37.6667 38H40.1667V44.5667C40.1667 45 40.7667 45.15 40.95 44.75L45.3834 35.8667C45.6667 35.3167 45.2667 34.6667 44.65 34.6667Z" fill="white"/>
</g>
<defs>
<clipPath id="clip0_73_1800">
<rect width="40" height="40" fill="white" transform="translate(8.5 8)"/>
</clipPath>
</defs>
</svg>
