<svg width="57" height="56" viewBox="0 0 57 56" fill="none" xmlns="http://www.w3.org/2000/svg">
<rect x="0.5" width="56" height="56" rx="28" fill="#12071C" fill-opacity="0.2"/>
<g clip-path="url(#clip0_73_2674)">
<path fill-rule="evenodd" clip-rule="evenodd" d="M43.5 9.66699H13.5C11.6666 9.66699 10.1666 11.167 10.1666 13.0003V43.0003C10.1666 44.8337 11.6666 46.3337 13.5 46.3337H43.5C45.3333 46.3337 46.8333 44.8337 46.8333 43.0003V13.0003C46.8333 11.167 45.3333 9.66699 43.5 9.66699ZM26.15 23.2837L17.5166 14.667L15.1666 17.017L23.7833 25.6337L26.15 23.2837ZM32.6666 14.667L36.0666 18.067L15.1666 38.9837L17.5166 41.3337L38.4333 20.4337L41.8333 23.8337V14.667H32.6666ZM33.2166 30.3503L30.8666 32.7003L36.0833 37.917L32.6666 41.3337H41.8333V32.167L38.4333 35.567L33.2166 30.3503V30.3503Z" fill="white"/>
</g>
<defs>
<clipPath id="clip0_73_2674">
<rect width="40" height="40" fill="white" transform="translate(8.5 8)"/>
</clipPath>
</defs>
</svg>
