<svg width="57" height="56" viewBox="0 0 57 56" fill="none" xmlns="http://www.w3.org/2000/svg">
<rect x="0.5" width="56" height="56" rx="28" fill="#12071C" fill-opacity="0.2"/>
<path d="M41.8334 14.667H15.1667C13.3334 14.667 11.85 16.167 11.85 18.0003L11.8334 38.0003C11.8334 39.8337 13.3334 41.3337 15.1667 41.3337H41.8334C43.6667 41.3337 45.1667 39.8337 45.1667 38.0003V18.0003C45.1667 16.167 43.6667 14.667 41.8334 14.667ZM15.1667 23.0003H32.6667V28.8337H15.1667V23.0003ZM15.1667 32.167H32.6667V38.0003H16.8334C15.9167 38.0003 15.1667 37.2503 15.1667 36.3337V32.167ZM40.1667 38.0003H36V23.0003H41.8334V36.3337C41.8334 37.2503 41.0834 38.0003 40.1667 38.0003Z" fill="white"/>
</svg>
