<svg width="57" height="56" viewBox="0 0 57 56" fill="none" xmlns="http://www.w3.org/2000/svg">
<rect x="0.5" width="56" height="56" rx="28" fill="#12071C" fill-opacity="0.2"/>
<g clip-path="url(#clip0_73_384)">
<path d="M39.6667 28.6663C39.2 28.3996 38.7167 28.1829 38.2334 27.9996C38.7167 27.8163 39.2 27.5996 39.6667 27.3329C42.8667 25.4829 44.65 22.1329 44.6667 18.6829C41.6834 16.9663 37.8834 16.8329 34.6667 18.6829C34.2 18.9496 33.7667 19.2663 33.3667 19.5829C33.45 19.0663 33.5 18.5329 33.5 17.9996C33.5 14.2996 31.4834 11.0829 28.5 9.34961C25.5167 11.0829 23.5 14.2996 23.5 17.9996C23.5 18.5329 23.55 19.0663 23.6334 19.5829C23.2334 19.2496 22.8 18.9329 22.3334 18.6663C19.1334 16.8163 15.3334 16.9496 12.3334 18.6663C12.3334 22.1163 14.1167 25.4663 17.3334 27.3163C17.8 27.5829 18.2834 27.7996 18.7667 27.9829C18.2834 28.1663 17.8 28.3829 17.3334 28.6496C14.1334 30.4996 12.35 33.8496 12.3334 37.2996C15.3167 39.0163 19.1167 39.1496 22.3334 37.2996C22.8 37.0329 23.2334 36.7163 23.6334 36.3996C23.55 36.9329 23.5 37.4663 23.5 37.9996C23.5 41.6996 25.5167 44.9163 28.5 46.6496C31.4834 44.9163 33.5 41.6996 33.5 37.9996C33.5 37.4663 33.45 36.9329 33.3667 36.4163C33.7667 36.7496 34.2 37.0496 34.6667 37.3163C37.8667 39.1663 41.6667 39.0329 44.6667 37.3163C44.65 33.8663 42.8667 30.5163 39.6667 28.6663V28.6663ZM28.5 34.6663C24.8167 34.6663 21.8334 31.6829 21.8334 27.9996C21.8334 24.3163 24.8167 21.3329 28.5 21.3329C32.1834 21.3329 35.1667 24.3163 35.1667 27.9996C35.1667 31.6829 32.1834 34.6663 28.5 34.6663Z" fill="white"/>
</g>
<defs>
<clipPath id="clip0_73_384">
<rect width="40" height="40" fill="white" transform="translate(8.5 8)"/>
</clipPath>
</defs>
</svg>
