<svg width="57" height="56" viewBox="0 0 57 56" fill="none" xmlns="http://www.w3.org/2000/svg">
<rect x="0.5" width="56" height="56" rx="28" fill="#12071C" fill-opacity="0.2"/>
<g clip-path="url(#clip0_73_66)">
<path d="M13.4999 18.0003H35.1666C36.0833 18.0003 36.8333 17.2503 36.8333 16.3337C36.8333 15.417 36.0833 14.667 35.1666 14.667H13.4999C12.5833 14.667 11.8333 15.417 11.8333 16.3337C11.8333 17.2503 12.5833 18.0003 13.4999 18.0003Z" fill="white"/>
<path d="M33.5 36.3337H36.8333V31.3337H37.1333C38.1833 31.3337 38.9666 30.367 38.7666 29.3337L37.1 21.0003C36.95 20.2337 36.2666 19.667 35.4666 19.667H13.2C12.4 19.667 11.7166 20.2337 11.5666 21.0003L9.89996 29.3337C9.69996 30.367 10.4833 31.3337 11.5333 31.3337H11.8333V39.667C11.8333 40.5837 12.5833 41.3337 13.5 41.3337H25.1666C26.0833 41.3337 26.8333 40.5837 26.8333 39.667V31.3337H33.5V36.3337ZM23.5 38.0003H15.1666V31.3337H23.5V38.0003Z" fill="white"/>
<path d="M45.1667 38H41.8333V34.6667C41.8333 33.75 41.0833 33 40.1667 33C39.25 33 38.5 33.75 38.5 34.6667V38H35.1667C34.25 38 33.5 38.75 33.5 39.6667C33.5 40.5833 34.25 41.3333 35.1667 41.3333H38.5V44.6667C38.5 45.5833 39.25 46.3333 40.1667 46.3333C41.0833 46.3333 41.8333 45.5833 41.8333 44.6667V41.3333H45.1667C46.0833 41.3333 46.8333 40.5833 46.8333 39.6667C46.8333 38.75 46.0833 38 45.1667 38Z" fill="white"/>
</g>
<defs>
<clipPath id="clip0_73_66">
<rect width="40" height="40" fill="white" transform="translate(8.5 8)"/>
</clipPath>
</defs>
</svg>
