<svg width="57" height="56" viewBox="0 0 57 56" fill="none" xmlns="http://www.w3.org/2000/svg">
<rect x="0.5" width="56" height="56" rx="28" fill="#12071C" fill-opacity="0.2"/>
<g clip-path="url(#clip0_73_664)">
<path d="M38.5834 43.4837C37.9334 44.1337 36.8834 44.1337 36.2334 43.4837L32.7 39.9503C32.05 39.3003 32.05 38.2503 32.7 37.6003C33.35 36.9503 34.4 36.9503 35.05 37.6003L37.4 39.9503L43.3 34.0503C43.95 33.4003 45 33.4003 45.65 34.0503C46.3 34.7003 46.3 35.7503 45.65 36.4003L38.5834 43.4837ZM28.6334 41.3337H15.1667C13.3334 41.3337 11.8334 39.8337 11.8334 38.0003V18.0003C11.8334 16.167 13.3334 14.667 15.1667 14.667H41.8334C43.6667 14.667 45.1667 16.167 45.1667 18.0003V29.1337C43.65 28.417 41.9667 28.0003 40.1667 28.0003C33.7167 28.0003 28.5 33.217 28.5 39.667C28.5 40.2337 28.55 40.7837 28.6334 41.3337ZM27.6167 29.117C28.15 29.4503 28.85 29.4503 29.3834 29.117L41.1667 21.7503C41.5834 21.4837 41.8334 21.0337 41.8334 20.5503C41.8334 19.4337 40.6167 18.767 39.6667 19.3503L28.5 26.3337L17.3334 19.3503C16.3834 18.767 15.1667 19.4337 15.1667 20.5503C15.1667 21.0337 15.4167 21.4837 15.8334 21.7503L27.6167 29.117Z" fill="white"/>
</g>
<defs>
<clipPath id="clip0_73_664">
<rect width="40" height="40" fill="white" transform="translate(8.5 8)"/>
</clipPath>
</defs>
</svg>
