<svg width="57" height="56" viewBox="0 0 57 56" fill="none" xmlns="http://www.w3.org/2000/svg">
<rect x="0.5" width="56" height="56" rx="28" fill="#12071C" fill-opacity="0.2"/>
<g clip-path="url(#clip0_73_1595)">
<path d="M41.8333 17.9997H40.1666V31.333C40.1666 32.2497 39.4166 32.9997 38.5 32.9997H18.5V34.6663C18.5 36.4997 20 37.9997 21.8333 37.9997H38.5L45.1666 44.6663V21.333C45.1666 19.4997 43.6666 17.9997 41.8333 17.9997ZM36.8333 26.333V14.6663C36.8333 12.833 35.3333 11.333 33.5 11.333H15.1666C13.3333 11.333 11.8333 12.833 11.8333 14.6663V36.333L18.5 29.6663H33.5C35.3333 29.6663 36.8333 28.1663 36.8333 26.333Z" fill="white"/>
</g>
<defs>
<clipPath id="clip0_73_1595">
<rect width="40" height="40" fill="white" transform="translate(8.5 8)"/>
</clipPath>
</defs>
</svg>
