<svg width="21" height="20" viewBox="0 0 21 20" fill="none" xmlns="http://www.w3.org/2000/svg">
<path fill-rule="evenodd" clip-rule="evenodd" d="M10.5029 0C4.98008 0 0.50293 4.47715 0.50293 10C0.50293 15.5228 4.98008 20 10.5029 20C16.0258 20 20.5029 15.5228 20.5029 10C20.5029 4.47715 16.0258 0 10.5029 0ZM10.0617 6.32207C9.81863 6.07855 9.8188 5.68413 10.0621 5.44082C10.3056 5.19736 10.7003 5.19736 10.9438 5.44082L14.7958 9.29289C15.1863 9.68342 15.1863 10.3166 14.7958 10.7071L10.9438 14.5592C10.7003 14.8026 10.3056 14.8026 10.0621 14.5592C9.8188 14.3159 9.81863 13.9215 10.0617 13.6779L13.1092 10.625H6.12793C5.78275 10.625 5.50293 10.3452 5.50293 10C5.50293 9.65482 5.78275 9.375 6.12793 9.375H13.1092L10.0617 6.32207Z" fill="#12071C"/>
</svg>
