<svg width="40" height="40" viewBox="0 0 40 40" fill="none" xmlns="http://www.w3.org/2000/svg">
<path fill-rule="evenodd" clip-rule="evenodd" d="M20 0C8.95431 0 0 8.95431 0 20C0 31.0457 8.95431 40 20 40C31.0457 40 40 31.0457 40 20C40 8.95431 31.0457 0 20 0ZM19.1176 12.6441C18.6314 12.1571 18.6317 11.3683 19.1184 10.8816C19.6053 10.3947 20.3947 10.3947 20.8816 10.8816L28.8215 18.8215C29.4724 19.4724 29.4724 20.5276 28.8215 21.1785L20.8816 29.1184C20.3947 29.6053 19.6053 29.6053 19.1184 29.1184C18.6317 28.6317 18.6314 27.8429 19.1176 27.3559L25.2125 21.25H11.25C10.5596 21.25 10 20.6904 10 20C10 19.3096 10.5596 18.75 11.25 18.75H25.2125L19.1176 12.6441Z" fill="white"/>
</svg>
