<svg width="40" height="40" viewBox="0 0 40 40" fill="none" xmlns="http://www.w3.org/2000/svg">
<path fill-rule="evenodd" clip-rule="evenodd" d="M20 0C31.0457 0 40 8.95431 40 20C40 31.0457 31.0457 40 20 40C8.95431 40 0 31.0457 0 20C0 8.95431 8.95431 0 20 0ZM21.056 11.056L20.7071 10.7071C20.3166 10.3166 19.6834 10.3166 19.2929 10.7071L10.7071 19.2929C10.3166 19.6834 10.3166 20.3166 10.7071 20.7071L19.2929 29.2929C19.6834 29.6834 20.3166 29.6834 20.7071 29.2929L21.056 28.944C21.4463 28.5537 21.4466 27.921 21.0567 27.5304L14.7875 21.25H28.75C29.4404 21.25 30 20.6904 30 20C30 19.3096 29.4404 18.75 28.75 18.75H14.7875L21.0567 12.4696C21.4466 12.079 21.4463 11.4463 21.056 11.056Z" fill="white"/>
</svg>
