<svg width="218" height="60" viewBox="0 0 218 60" fill="none" xmlns="http://www.w3.org/2000/svg">
<g clip-path="url(#clip0_15_14876)">
<g filter="url(#filter0_b_15_14876)">
<rect x="0.50293" width="224" height="60" rx="30" fill="white"/>
<path d="M29.9518 36V24.3636H37.6563V26.392H32.412V29.1648H37.145V31.1932H32.412V36H29.9518ZM39.1251 36V27.2727H41.4717V28.7955H41.5626C41.7217 28.2538 41.9887 27.8447 42.3637 27.5682C42.7387 27.2879 43.1705 27.1477 43.6592 27.1477C43.7804 27.1477 43.9111 27.1553 44.0512 27.1705C44.1914 27.1856 44.3145 27.2064 44.4205 27.233V29.3807C44.3069 29.3466 44.1497 29.3163 43.949 29.2898C43.7482 29.2633 43.5645 29.25 43.3978 29.25C43.0418 29.25 42.7236 29.3277 42.4433 29.483C42.1668 29.6345 41.9471 29.8466 41.7842 30.1193C41.6251 30.392 41.5455 30.7064 41.5455 31.0625V36H39.1251ZM49.243 36.1705C48.3453 36.1705 47.5725 35.9886 46.9248 35.625C46.2809 35.2576 45.7847 34.7386 45.4362 34.0682C45.0877 33.3939 44.9134 32.5966 44.9134 31.6761C44.9134 30.7784 45.0877 29.9905 45.4362 29.3125C45.7847 28.6345 46.2752 28.1061 46.9078 27.7273C47.5441 27.3485 48.2903 27.1591 49.1464 27.1591C49.7222 27.1591 50.2581 27.2519 50.7544 27.4375C51.2544 27.6193 51.69 27.8939 52.0612 28.2614C52.4362 28.6288 52.7278 29.0909 52.9362 29.6477C53.1445 30.2008 53.2487 30.8485 53.2487 31.5909V32.2557H45.8794V30.7557H50.9703C50.9703 30.4072 50.8945 30.0985 50.743 29.8295C50.5915 29.5606 50.3812 29.3504 50.1123 29.1989C49.8472 29.0436 49.5384 28.9659 49.1862 28.9659C48.8187 28.9659 48.493 29.0511 48.2089 29.2216C47.9286 29.3883 47.7089 29.6136 47.5498 29.8977C47.3907 30.178 47.3093 30.4905 47.3055 30.8352V32.2614C47.3055 32.6932 47.385 33.0663 47.5441 33.3807C47.707 33.6951 47.9362 33.9375 48.2316 34.108C48.5271 34.2784 48.8775 34.3636 49.2828 34.3636C49.5517 34.3636 49.7979 34.3258 50.0214 34.25C50.2449 34.1742 50.4362 34.0606 50.5953 33.9091C50.7544 33.7576 50.8756 33.572 50.9589 33.3523L53.1975 33.5C53.0839 34.0379 52.8509 34.5076 52.4987 34.9091C52.1502 35.3068 51.6994 35.6174 51.1464 35.8409C50.5972 36.0606 49.9627 36.1705 49.243 36.1705ZM58.8055 36.1705C57.9078 36.1705 57.135 35.9886 56.4873 35.625C55.8434 35.2576 55.3472 34.7386 54.9987 34.0682C54.6502 33.3939 54.4759 32.5966 54.4759 31.6761C54.4759 30.7784 54.6502 29.9905 54.9987 29.3125C55.3472 28.6345 55.8377 28.1061 56.4703 27.7273C57.1066 27.3485 57.8528 27.1591 58.7089 27.1591C59.2847 27.1591 59.8206 27.2519 60.3169 27.4375C60.8169 27.6193 61.2525 27.8939 61.6237 28.2614C61.9987 28.6288 62.2903 29.0909 62.4987 29.6477C62.707 30.2008 62.8112 30.8485 62.8112 31.5909V32.2557H55.4419V30.7557H60.5328C60.5328 30.4072 60.457 30.0985 60.3055 29.8295C60.154 29.5606 59.9437 29.3504 59.6748 29.1989C59.4097 29.0436 59.1009 28.9659 58.7487 28.9659C58.3812 28.9659 58.0555 29.0511 57.7714 29.2216C57.4911 29.3883 57.2714 29.6136 57.1123 29.8977C56.9532 30.178 56.8718 30.4905 56.868 30.8352V32.2614C56.868 32.6932 56.9475 33.0663 57.1066 33.3807C57.2695 33.6951 57.4987 33.9375 57.7941 34.108C58.0896 34.2784 58.44 34.3636 58.8453 34.3636C59.1142 34.3636 59.3604 34.3258 59.5839 34.25C59.8074 34.1742 59.9987 34.0606 60.1578 33.9091C60.3169 33.7576 60.4381 33.572 60.5214 33.3523L62.76 33.5C62.6464 34.0379 62.4134 34.5076 62.0612 34.9091C61.7127 35.3068 61.2619 35.6174 60.7089 35.8409C60.1597 36.0606 59.5252 36.1705 58.8055 36.1705ZM78.4063 28.4375H75.9177C75.8722 28.1155 75.7794 27.8295 75.6393 27.5795C75.4991 27.3258 75.3192 27.1098 75.0995 26.9318C74.8798 26.7538 74.626 26.6174 74.3382 26.5227C74.0541 26.428 73.7454 26.3807 73.412 26.3807C72.8097 26.3807 72.2851 26.5303 71.8382 26.8295C71.3912 27.125 71.0446 27.5568 70.7984 28.125C70.5522 28.6894 70.4291 29.375 70.4291 30.1818C70.4291 31.0114 70.5522 31.7083 70.7984 32.2727C71.0484 32.8371 71.3969 33.2633 71.8438 33.5511C72.2908 33.839 72.8079 33.983 73.395 33.983C73.7245 33.983 74.0294 33.9394 74.3097 33.8523C74.5938 33.7652 74.8457 33.6383 75.0654 33.4716C75.2851 33.3011 75.4669 33.0947 75.6109 32.8523C75.7586 32.6098 75.8609 32.3333 75.9177 32.0227L78.4063 32.0341C78.3419 32.5682 78.181 33.0833 77.9234 33.5795C77.6696 34.072 77.3268 34.5133 76.895 34.9034C76.4669 35.2898 75.9556 35.5966 75.3609 35.8239C74.77 36.0473 74.1014 36.1591 73.3552 36.1591C72.3173 36.1591 71.3893 35.9242 70.5711 35.4545C69.7567 34.9848 69.1128 34.3049 68.6393 33.4148C68.1696 32.5246 67.9347 31.447 67.9347 30.1818C67.9347 28.9129 68.1734 27.8333 68.6507 26.9432C69.1279 26.053 69.7757 25.375 70.5938 24.9091C71.412 24.4394 72.3325 24.2045 73.3552 24.2045C74.0294 24.2045 74.6544 24.2992 75.2302 24.4886C75.8097 24.678 76.323 24.9545 76.77 25.3182C77.2169 25.678 77.5806 26.1193 77.8609 26.642C78.145 27.1648 78.3268 27.7633 78.4063 28.4375ZM84.0683 36.1705C83.1857 36.1705 82.4224 35.983 81.7785 35.608C81.1383 35.2292 80.644 34.7027 80.2955 34.0284C79.9471 33.3504 79.7728 32.5644 79.7728 31.6705C79.7728 30.7689 79.9471 29.9811 80.2955 29.3068C80.644 28.6288 81.1383 28.1023 81.7785 27.7273C82.4224 27.3485 83.1857 27.1591 84.0683 27.1591C84.9508 27.1591 85.7122 27.3485 86.3524 27.7273C86.9963 28.1023 87.4925 28.6288 87.841 29.3068C88.1895 29.9811 88.3637 30.7689 88.3637 31.6705C88.3637 32.5644 88.1895 33.3504 87.841 34.0284C87.4925 34.7027 86.9963 35.2292 86.3524 35.608C85.7122 35.983 84.9508 36.1705 84.0683 36.1705ZM84.0796 34.2955C84.4811 34.2955 84.8164 34.1818 85.0853 33.9545C85.3543 33.7235 85.5569 33.4091 85.6933 33.0114C85.8334 32.6136 85.9035 32.161 85.9035 31.6534C85.9035 31.1458 85.8334 30.6932 85.6933 30.2955C85.5569 29.8977 85.3543 29.5833 85.0853 29.3523C84.8164 29.1212 84.4811 29.0057 84.0796 29.0057C83.6743 29.0057 83.3334 29.1212 83.0569 29.3523C82.7842 29.5833 82.5777 29.8977 82.4376 30.2955C82.3012 30.6932 82.233 31.1458 82.233 31.6534C82.233 32.161 82.3012 32.6136 82.4376 33.0114C82.5777 33.4091 82.7842 33.7235 83.0569 33.9545C83.3334 34.1818 83.6743 34.2955 84.0796 34.2955ZM92.358 30.9545V36H89.9376V27.2727H92.2444V28.8125H92.3467C92.5399 28.3049 92.8637 27.9034 93.3183 27.608C93.7728 27.3087 94.324 27.1591 94.9717 27.1591C95.5777 27.1591 96.1061 27.2917 96.5569 27.5568C97.0077 27.822 97.358 28.2008 97.608 28.6932C97.858 29.1818 97.983 29.7652 97.983 30.4432V36H95.5626V30.875C95.5664 30.3409 95.43 29.9242 95.1535 29.625C94.877 29.322 94.4963 29.1705 94.0115 29.1705C93.6857 29.1705 93.3978 29.2405 93.1478 29.3807C92.9016 29.5208 92.7084 29.7254 92.5683 29.9943C92.4319 30.2595 92.3618 30.5795 92.358 30.9545ZM107.152 29.7614L104.936 29.8977C104.898 29.7083 104.817 29.5379 104.692 29.3864C104.567 29.2311 104.402 29.108 104.198 29.017C103.997 28.9223 103.756 28.875 103.476 28.875C103.101 28.875 102.785 28.9545 102.527 29.1136C102.27 29.2689 102.141 29.4773 102.141 29.7386C102.141 29.947 102.224 30.1231 102.391 30.267C102.557 30.411 102.843 30.5265 103.249 30.6136L104.828 30.9318C105.677 31.1061 106.309 31.3864 106.726 31.7727C107.143 32.1591 107.351 32.6667 107.351 33.2955C107.351 33.8674 107.182 34.3693 106.845 34.8011C106.512 35.233 106.054 35.5701 105.47 35.8125C104.891 36.0511 104.222 36.1705 103.465 36.1705C102.309 36.1705 101.389 35.9299 100.703 35.4489C100.021 34.964 99.6218 34.3049 99.5044 33.4716L101.885 33.3466C101.957 33.6989 102.131 33.9678 102.408 34.1534C102.684 34.3352 103.038 34.4261 103.47 34.4261C103.895 34.4261 104.235 34.3447 104.493 34.1818C104.754 34.0152 104.887 33.8011 104.891 33.5398C104.887 33.3201 104.794 33.1402 104.612 33C104.43 32.8561 104.15 32.7462 103.771 32.6705L102.26 32.3693C101.408 32.1989 100.773 31.9034 100.357 31.483C99.9437 31.0625 99.7373 30.5265 99.7373 29.875C99.7373 29.3144 99.8888 28.8314 100.192 28.4261C100.499 28.0208 100.929 27.7083 101.482 27.4886C102.038 27.2689 102.69 27.1591 103.436 27.1591C104.538 27.1591 105.406 27.392 106.038 27.858C106.675 28.3239 107.046 28.9583 107.152 29.7614ZM114.472 32.2841V27.2727H116.892V36H114.568V34.4148H114.477C114.28 34.9261 113.953 35.3371 113.494 35.6477C113.04 35.9583 112.485 36.1136 111.83 36.1136C111.246 36.1136 110.733 35.9811 110.29 35.7159C109.847 35.4508 109.5 35.0739 109.25 34.5852C109.004 34.0966 108.879 33.5114 108.875 32.8295V27.2727H111.296V32.3977C111.299 32.9129 111.438 33.3201 111.71 33.6193C111.983 33.9186 112.349 34.0682 112.807 34.0682C113.099 34.0682 113.371 34.0019 113.625 33.8693C113.879 33.733 114.083 33.5322 114.239 33.267C114.398 33.0019 114.475 32.6742 114.472 32.2841ZM121.249 24.3636V36H118.828V24.3636H121.249ZM127.83 27.2727V29.0909H122.574V27.2727H127.83ZM123.767 25.1818H126.188V33.3182C126.188 33.5417 126.222 33.7159 126.29 33.8409C126.358 33.9621 126.453 34.0473 126.574 34.0966C126.699 34.1458 126.843 34.1705 127.006 34.1705C127.119 34.1705 127.233 34.161 127.347 34.142C127.46 34.1193 127.547 34.1023 127.608 34.0909L127.989 35.892C127.868 35.9299 127.697 35.9735 127.477 36.0227C127.258 36.0758 126.991 36.108 126.676 36.1193C126.093 36.142 125.582 36.0644 125.142 35.8864C124.707 35.7083 124.368 35.4318 124.125 35.0568C123.883 34.6818 123.763 34.2083 123.767 33.6364V25.1818ZM131.895 36.1648C131.338 36.1648 130.842 36.0682 130.406 35.875C129.971 35.678 129.626 35.3883 129.372 35.0057C129.122 34.6193 128.997 34.1383 128.997 33.5625C128.997 33.0777 129.086 32.6705 129.264 32.3409C129.442 32.0114 129.685 31.7462 129.992 31.5455C130.298 31.3447 130.647 31.1932 131.037 31.0909C131.431 30.9886 131.844 30.9167 132.276 30.875C132.783 30.822 133.192 30.7727 133.503 30.7273C133.814 30.678 134.039 30.6061 134.179 30.5114C134.319 30.4167 134.389 30.2765 134.389 30.0909V30.0568C134.389 29.697 134.276 29.4186 134.048 29.2216C133.825 29.0246 133.507 28.9261 133.094 28.9261C132.658 28.9261 132.312 29.0227 132.054 29.2159C131.796 29.4053 131.626 29.6439 131.543 29.9318L129.304 29.75C129.418 29.2197 129.641 28.7614 129.975 28.375C130.308 27.9848 130.738 27.6856 131.264 27.4773C131.795 27.2652 132.408 27.1591 133.105 27.1591C133.59 27.1591 134.054 27.2159 134.497 27.3295C134.944 27.4432 135.34 27.6193 135.685 27.858C136.033 28.0966 136.308 28.4034 136.509 28.7784C136.709 29.1496 136.81 29.5947 136.81 30.1136V36H134.514V34.7898H134.446C134.306 35.0625 134.118 35.303 133.884 35.5114C133.649 35.7159 133.367 35.8769 133.037 35.9943C132.707 36.108 132.327 36.1648 131.895 36.1648ZM132.588 34.4943C132.944 34.4943 133.259 34.4242 133.531 34.2841C133.804 34.1402 134.018 33.947 134.173 33.7045C134.329 33.4621 134.406 33.1875 134.406 32.8807V31.9545C134.331 32.0038 134.226 32.0492 134.094 32.0909C133.965 32.1288 133.819 32.1648 133.656 32.1989C133.493 32.2292 133.331 32.2576 133.168 32.2841C133.005 32.3068 132.857 32.3277 132.725 32.3466C132.44 32.3883 132.192 32.4545 131.98 32.5455C131.768 32.6364 131.603 32.7595 131.486 32.9148C131.368 33.0663 131.31 33.2557 131.31 33.483C131.31 33.8125 131.429 34.0644 131.668 34.2386C131.91 34.4091 132.217 34.4943 132.588 34.4943ZM143.33 27.2727V29.0909H138.074V27.2727H143.33ZM139.267 25.1818H141.688V33.3182C141.688 33.5417 141.722 33.7159 141.79 33.8409C141.858 33.9621 141.953 34.0473 142.074 34.0966C142.199 34.1458 142.343 34.1705 142.506 34.1705C142.619 34.1705 142.733 34.161 142.847 34.142C142.96 34.1193 143.047 34.1023 143.108 34.0909L143.489 35.892C143.368 35.9299 143.197 35.9735 142.977 36.0227C142.758 36.0758 142.491 36.108 142.176 36.1193C141.593 36.142 141.082 36.0644 140.642 35.8864C140.207 35.7083 139.868 35.4318 139.625 35.0568C139.383 34.6818 139.263 34.2083 139.267 33.6364V25.1818ZM144.906 36V27.2727H147.327V36H144.906ZM146.122 26.1477C145.762 26.1477 145.454 26.0284 145.196 25.7898C144.942 25.5473 144.815 25.2576 144.815 24.9205C144.815 24.5871 144.942 24.3011 145.196 24.0625C145.454 23.8201 145.762 23.6989 146.122 23.6989C146.482 23.6989 146.789 23.8201 147.043 24.0625C147.3 24.3011 147.429 24.5871 147.429 24.9205C147.429 25.2576 147.3 25.5473 147.043 25.7898C146.789 26.0284 146.482 26.1477 146.122 26.1477ZM153.209 36.1705C152.326 36.1705 151.563 35.983 150.919 35.608C150.279 35.2292 149.785 34.7027 149.436 34.0284C149.088 33.3504 148.913 32.5644 148.913 31.6705C148.913 30.7689 149.088 29.9811 149.436 29.3068C149.785 28.6288 150.279 28.1023 150.919 27.7273C151.563 27.3485 152.326 27.1591 153.209 27.1591C154.091 27.1591 154.853 27.3485 155.493 27.7273C156.137 28.1023 156.633 28.6288 156.982 29.3068C157.33 29.9811 157.504 30.7689 157.504 31.6705C157.504 32.5644 157.33 33.3504 156.982 34.0284C156.633 34.7027 156.137 35.2292 155.493 35.608C154.853 35.983 154.091 36.1705 153.209 36.1705ZM153.22 34.2955C153.622 34.2955 153.957 34.1818 154.226 33.9545C154.495 33.7235 154.698 33.4091 154.834 33.0114C154.974 32.6136 155.044 32.161 155.044 31.6534C155.044 31.1458 154.974 30.6932 154.834 30.2955C154.698 29.8977 154.495 29.5833 154.226 29.3523C153.957 29.1212 153.622 29.0057 153.22 29.0057C152.815 29.0057 152.474 29.1212 152.198 29.3523C151.925 29.5833 151.718 29.8977 151.578 30.2955C151.442 30.6932 151.374 31.1458 151.374 31.6534C151.374 32.161 151.442 32.6136 151.578 33.0114C151.718 33.4091 151.925 33.7235 152.198 33.9545C152.474 34.1818 152.815 34.2955 153.22 34.2955ZM161.499 30.9545V36H159.078V27.2727H161.385V28.8125H161.487C161.68 28.3049 162.004 27.9034 162.459 27.608C162.913 27.3087 163.465 27.1591 164.112 27.1591C164.718 27.1591 165.247 27.2917 165.698 27.5568C166.148 27.822 166.499 28.2008 166.749 28.6932C166.999 29.1818 167.124 29.7652 167.124 30.4432V36H164.703V30.875C164.707 30.3409 164.571 29.9242 164.294 29.625C164.018 29.322 163.637 29.1705 163.152 29.1705C162.826 29.1705 162.538 29.2405 162.288 29.3807C162.042 29.5208 161.849 29.7254 161.709 29.9943C161.573 30.2595 161.502 30.5795 161.499 30.9545Z" fill="#12071C"/>
<path fill-rule="evenodd" clip-rule="evenodd" d="M194.503 20C188.98 20 184.503 24.4772 184.503 30C184.503 35.5228 188.98 40 194.503 40C200.026 40 204.503 35.5228 204.503 30C204.503 24.4772 200.026 20 194.503 20ZM194.062 26.3221C193.819 26.0785 193.819 25.6841 194.062 25.4408C194.306 25.1974 194.7 25.1974 194.944 25.4408L198.796 29.2929C199.186 29.6834 199.186 30.3166 198.796 30.7071L194.944 34.5592C194.7 34.8026 194.306 34.8026 194.062 34.5592C193.819 34.3159 193.819 33.9215 194.062 33.6779L197.109 30.625H190.128C189.783 30.625 189.503 30.3452 189.503 30C189.503 29.6548 189.783 29.375 190.128 29.375H197.109L194.062 26.3221Z" fill="#12071C"/>
</g>
<g opacity="0.1" filter="url(#filter1_f_15_14876)">
<ellipse cx="-25.2253" cy="13.2262" rx="56.3319" ry="12" transform="rotate(-71.4798 -25.2253 13.2262)" fill="#8548F4"/>
</g>
</g>
<defs>
<filter id="filter0_b_15_14876" x="-39.4971" y="-40" width="304" height="140" filterUnits="userSpaceOnUse" color-interpolation-filters="sRGB">
<feFlood flood-opacity="0" result="BackgroundImageFix"/>
<feGaussianBlur in="BackgroundImageFix" stdDeviation="20"/>
<feComposite in2="SourceAlpha" operator="in" result="effect1_backgroundBlur_15_14876"/>
<feBlend mode="normal" in="SourceGraphic" in2="effect1_backgroundBlur_15_14876" result="shape"/>
</filter>
<filter id="filter1_f_15_14876" x="-62.4326" y="-56.3262" width="74.4146" height="139.105" filterUnits="userSpaceOnUse" color-interpolation-filters="sRGB">
<feFlood flood-opacity="0" result="BackgroundImageFix"/>
<feBlend mode="normal" in="SourceGraphic" in2="BackgroundImageFix" result="shape"/>
<feGaussianBlur stdDeviation="8" result="effect1_foregroundBlur_15_14876"/>
</filter>
<clipPath id="clip0_15_14876">
<rect x="0.50293" width="216.866" height="60" rx="30" fill="white"/>
</clipPath>
</defs>
</svg>
