<svg width="24" height="24" viewBox="0 0 24 24" fill="none" xmlns="http://www.w3.org/2000/svg">
<path d="M10.7301 4C10.1778 4 9.73006 4.44771 9.73006 5V5.38C8.88139 5.05 7.97137 4.88 7.06135 4.88C5.55403 4.88 4.04672 5.3412 2.77928 6.26918C2.32664 6.60059 2.32994 7.25268 2.73101 7.64493L5.1699 10.0302C5.32055 10.1775 5.5229 10.26 5.73363 10.26H5.7586C6.19009 10.26 6.53988 10.6098 6.53988 11.0413C6.53988 11.2515 6.62256 11.4553 6.78271 11.5915C7.62473 12.3075 8.66805 12.6845 9.71984 12.73V15H7.66258C7.11029 15 6.66258 15.4477 6.66258 16V18C6.66258 19.1 7.58282 20 8.70757 20H18.9325C20.6299 20 22 18.66 22 17V5C22 4.44772 21.5523 4 21 4H10.7301ZM9.14742 10.6352C8.79396 10.5327 8.59509 10.1804 8.59509 9.81241V9.26C8.59509 8.70771 8.14738 8.26 7.59509 8.26H6.67152C6.41015 8.26 6.15918 8.15767 5.97232 7.97493L5.20041 7.22C5.78323 7 6.41718 6.88 7.06135 6.88C8.43149 6.88 9.70961 7.4 10.681 8.34L12.1227 9.75L11.9182 9.95C11.3967 10.46 10.7014 10.75 9.95501 10.75C9.67923 10.75 9.40681 10.7105 9.14742 10.6352ZM19.955 17C19.955 17.55 19.4949 18 18.9325 18C18.3701 18 17.91 17.55 17.91 17V16C17.91 15.4477 17.4623 15 16.91 15H12.7751C12.2228 15 11.7751 14.5523 11.7751 14V12.41C12.3579 12.18 12.8998 11.84 13.3701 11.38L13.5746 11.18L16.1771 13.7162C16.3638 13.8982 16.6142 14 16.875 14H16.9186C17.4662 14 17.91 13.5561 17.91 13.0086C17.91 12.741 17.8018 12.4847 17.61 12.2981L11.7751 6.62C11.7751 6.27758 12.0526 6 12.3951 6H18.955C19.5073 6 19.955 6.44772 19.955 7V17Z" fill="white"/>
</svg>
