<svg width="24" height="24" viewBox="0 0 24 24" fill="none" xmlns="http://www.w3.org/2000/svg">
<g clip-path="url(#clip0_162_215)">
<path d="M19 3H5C3.9 3 3 3.9 3 5V19C3 20.1 3.9 21 5 21H19C20.1 21 21 20.1 21 19V5C21 3.9 20.1 3 19 3ZM18 7C18 7.55228 17.5523 8 17 8H16.58C16.0277 8 15.58 8.44772 15.58 9V10.33C15.58 10.8823 15.1323 11.33 14.58 11.33H14C13.4477 11.33 13 11.7777 13 12.33V13.66C13 14.2123 12.5523 14.66 12 14.66H11.42C10.8677 14.66 10.42 15.1077 10.42 15.66V17C10.42 17.5523 9.97228 18 9.42 18H7C6.44772 18 6 17.5523 6 17C6 16.4477 6.44772 16 7 16H7.42C7.97228 16 8.42 15.5523 8.42 15V13.67C8.42 13.1177 8.86772 12.67 9.42 12.67H10C10.5523 12.67 11 12.2223 11 11.67V10.33C11 9.77772 11.4477 9.33 12 9.33H12.58C13.1323 9.33 13.58 8.88228 13.58 8.33V7C13.58 6.44771 14.0277 6 14.58 6H17C17.5523 6 18 6.44772 18 7Z" fill="white"/>
</g>
<defs>
<clipPath id="clip0_162_215">
<rect width="24" height="24" fill="white"/>
</clipPath>
</defs>
</svg>
