<svg width="24" height="24" viewBox="0 0 24 24" fill="none" xmlns="http://www.w3.org/2000/svg">
<g clip-path="url(#clip0_162_1791)">
<path d="M11.99 2C6.47 2 2 6.48 2 12C2 17.52 6.47 22 11.99 22C17.52 22 22 17.52 22 12C22 6.48 17.52 2 11.99 2ZM15.6947 15.6961C15.8947 16.557 14.9613 17.2352 14.2043 16.7788L12.5163 15.7612C12.1987 15.5698 11.8013 15.5698 11.4837 15.7612L9.79697 16.7781C9.0398 17.2345 8.10625 16.5559 8.30675 15.6949L8.75315 13.7777C8.83732 13.4163 8.71438 13.0379 8.43383 12.795L6.9509 11.5108C6.2823 10.9319 6.63923 9.83372 7.52046 9.7585L9.47898 9.59131C9.84864 9.55975 10.1704 9.32614 10.315 8.98444L11.08 7.17544C11.4241 6.36179 12.577 6.36134 12.9217 7.17471L13.6848 8.97512C13.8295 9.31644 14.1511 9.54973 14.5205 9.58126L16.4795 9.7485C17.3608 9.82372 17.7177 10.9219 17.0491 11.5008L15.5659 12.7852C15.2855 13.028 15.1625 13.4061 15.2465 13.7675L15.6947 15.6961Z" fill="white"/>
</g>
<defs>
<clipPath id="clip0_162_1791">
<rect width="24" height="24" fill="white"/>
</clipPath>
</defs>
</svg>
