<svg width="24" height="24" viewBox="0 0 24 24" fill="none" xmlns="http://www.w3.org/2000/svg">
<g clip-path="url(#clip0_162_1772)">
<path d="M20 14C21.1046 14 22 13.1046 22 12C22 10.8954 21.1046 10 20 10C18.8954 10 18 10.8954 18 12C18 13.1046 18.8954 14 20 14Z" fill="white"/>
<path d="M4 14C5.10457 14 6 13.1046 6 12C6 10.8954 5.10457 10 4 10C2.89543 10 2 10.8954 2 12C2 13.1046 2.89543 14 4 14Z" fill="white"/>
<path d="M12 22C13.1046 22 14 21.1046 14 20C14 18.8954 13.1046 18 12 18C10.8954 18 10 18.8954 10 20C10 21.1046 10.8954 22 12 22Z" fill="white"/>
<path d="M9.33911 9.29548C9.73158 8.90578 9.73343 8.27159 9.34324 7.8796L6.415 4.93786C6.02549 4.54656 5.39265 4.54472 5.00087 4.93374C4.6084 5.32344 4.60655 5.95763 4.99674 6.34961L7.92499 9.29136C8.31449 9.68265 8.94733 9.6845 9.33911 9.29548ZM14.649 9.32461C14.2591 8.9336 14.26 8.30053 14.651 7.91065L17.6405 4.93006C18.0313 4.5404 18.6639 4.54121 19.0537 4.93185C19.4438 5.3227 19.443 5.95575 19.052 6.34565L16.063 9.32658C15.672 9.7165 15.0389 9.71562 14.649 9.32461ZM9.29713 16.0692C9.69016 15.678 9.68977 15.0416 9.29626 14.6509C8.90566 14.2631 8.27507 14.2638 7.8854 14.6526L4.94702 17.5842C4.55667 17.9737 4.55631 18.6059 4.94621 18.9958C5.33516 19.3848 5.96555 19.3855 6.35539 18.9974L9.29713 16.0692ZM19.0487 19.0059C19.4413 18.6161 19.4427 17.9816 19.052 17.59L16.1154 14.6466C15.7259 14.2563 15.0937 14.2559 14.7038 14.6458C14.3148 15.0348 14.3141 15.6652 14.7022 16.055L17.6354 19.0018C18.0247 19.3928 18.6572 19.3947 19.0487 19.0059Z" fill="white"/>
<path d="M12 6C13.1046 6 14 5.10457 14 4C14 2.89543 13.1046 2 12 2C10.8954 2 10 2.89543 10 4C10 5.10457 10.8954 6 12 6Z" fill="white"/>
</g>
<defs>
<clipPath id="clip0_162_1772">
<rect width="24" height="24" fill="white"/>
</clipPath>
</defs>
</svg>
